<svg xmlns="http://www.w3.org/2000/svg" viewBox="0 0 64 64" role="img" aria-label="!0?Q@">
  <defs>
    <radialGradient id="bg" cx="50%" cy="35%" r="75%">
      <stop offset="0%" stop-color="#1f2a44"/>
      <stop offset="100%" stop-color="#0b1120"/>
    </radialGradient>
    <radialGradient id="ball" cx="35%" cy="32%" r="68%">
      <stop offset="0%" stop-color="#f8fafc"/>
      <stop offset="55%" stop-color="#94a3b8"/>
      <stop offset="100%" stop-color="#1f2937"/>
    </radialGradient>
    <linearGradient id="spark" x1="0%" y1="100%" x2="0%" y2="0%">
      <stop offset="0%" stop-color="#f97316"/>
      <stop offset="100%" stop-color="#facc15"/>
    </linearGradient>
  </defs>

  <rect width="64" height="64" rx="14" fill="url(#bg)"/>

  <g transform="translate(0 2)">
    <circle cx="30" cy="38" r="20" fill="url(#ball)"/>
    <circle cx="22" cy="30" r="5" fill="#ffffff" opacity="0.65"/>

    <g fill="#0b1120">
      <circle cx="30" cy="20" r="2.4"/>
      <circle cx="20" cy="28" r="2.4"/>
      <circle cx="40" cy="28" r="2.4"/>
      <circle cx="20" cy="48" r="2.4"/>
      <circle cx="40" cy="48" r="2.4"/>
      <circle cx="30" cy="56" r="2.4"/>
    </g>

    <path d="M44 22 C49 17, 50 13, 50 9" stroke="#1f2937" stroke-width="2.5" stroke-linecap="round" fill="none"/>
    <path d="M44 22 C49 17, 50 13, 50 9" stroke="#facc15" stroke-width="1.4" stroke-linecap="round" fill="none"/>
    <circle cx="50" cy="9" r="3.4" fill="url(#spark)"/>
    <circle cx="50" cy="9" r="1.4" fill="#fff7ed"/>
  </g>
</svg>
